<?xml version="1.0" encoding="UTF-8"?>
<svg version="1.1" xmlns="http://www.w3.org/2000/svg" width="1121" height="1157">
<path d="M0 0 C0.95342305 -0.01185823 1.9068461 -0.02371646 2.88916075 -0.03593403 C3.93883697 -0.04393511 4.9885132 -0.05193618 6.06999779 -0.06017971 C7.18354334 -0.07232319 8.2970889 -0.08446667 9.44437826 -0.09697813 C13.1957227 -0.13625521 16.94709065 -0.16811367 20.69850731 -0.19969082 C22.69755711 -0.21899324 24.69660689 -0.23830016 26.6956531 -0.25797171 C51.90170723 -0.50447774 77.1088091 -0.63671947 102.3157959 -0.74338531 C105.60010583 -0.75753204 108.88441446 -0.77194838 112.16872215 -0.78660488 C113.39311707 -0.79205208 113.39311707 -0.79205208 114.64224724 -0.79760932 C127.83907406 -0.85803399 141.03469927 -0.97791945 154.2308621 -1.12083942 C167.79453233 -1.26651147 181.35757957 -1.35086143 194.92200983 -1.37834543 C203.27877597 -1.39711706 211.63244446 -1.4622631 219.98829268 -1.58827614 C225.72899901 -1.67018541 231.4680442 -1.69185468 237.20927466 -1.66779441 C240.5159495 -1.6556422 243.81273772 -1.6772627 247.11920929 -1.75300503 C268.93223259 -2.22710445 268.93223259 -2.22710445 277.90460145 5.67794758 C280.61502102 8.3789458 283.12487201 11.19699024 285.57926822 14.13104165 C288.54991662 17.48432265 291.96694454 20.28464592 295.3835659 23.16774082 C297.48557098 25.06450468 299.56031486 26.98963385 301.6335659 28.91774082 C302.75971533 29.9608744 303.88602101 31.00383931 305.01247215 32.04664707 C305.85382713 32.82612705 305.85382713 32.82612705 306.71217918 33.6213541 C312.87667955 39.3248226 319.06864465 44.9982308 325.3210659 50.60524082 C329.77643394 54.60291455 334.17440109 58.65974967 338.56691551 62.72609043 C341.81721941 65.73170155 345.08653665 68.71326006 348.3835659 71.66774082 C352.81977085 75.64304136 357.19610988 79.6798175 361.56715965 83.72633457 C364.81739687 86.73184805 368.08662241 89.71333691 371.3835659 92.66774082 C375.81977085 96.64304136 380.19610988 100.6798175 384.56715965 104.72633457 C387.81739687 107.73184805 391.08662241 110.71333691 394.3835659 113.66774082 C398.81977085 117.64304136 403.19610988 121.6798175 407.56715965 125.72633457 C410.81739687 128.73184805 414.08662241 131.71333691 417.3835659 134.66774082 C421.81977085 138.64304136 426.19610988 142.6798175 430.56715965 146.72633457 C433.81739687 149.73184805 437.08662241 152.71333691 440.3835659 155.66774082 C444.81977085 159.64304136 449.19610988 163.6798175 453.56715965 167.72633457 C456.81739687 170.73184805 460.08662241 173.71333691 463.3835659 176.66774082 C467.25019157 180.13263915 471.07370376 183.6407865 474.8835659 187.16774082 C479.50976397 191.45001361 484.17035265 195.68981941 488.86403465 199.89820957 C494.25394257 204.75330492 499.58308395 209.67553624 504.92458153 214.58375645 C510.03666964 219.28012202 515.15241746 223.97099222 520.3210659 228.60524082 C524.77643394 232.60291455 529.17440109 236.65974967 533.56691551 240.72609043 C536.81721941 243.73170155 540.08653665 246.71326006 543.3835659 249.66774082 C547.81977085 253.64304136 552.19610988 257.6798175 556.56715965 261.72633457 C559.81739687 264.73184805 563.08662241 267.71333691 566.3835659 270.66774082 C570.81977085 274.64304136 575.19610988 278.6798175 579.56715965 282.72633457 C582.81739687 285.73184805 586.08662241 288.71333691 589.3835659 291.66774082 C593.81977085 295.64304136 598.19610988 299.6798175 602.56715965 303.72633457 C605.81739687 306.73184805 609.08662241 309.71333691 612.3835659 312.66774082 C616.81977085 316.64304136 621.19610988 320.6798175 625.56715965 324.72633457 C628.81739687 327.73184805 632.08662241 330.71333691 635.3835659 333.66774082 C639.81977085 337.64304136 644.19610988 341.6798175 648.56715965 345.72633457 C651.81739687 348.73184805 655.08662241 351.71333691 658.3835659 354.66774082 C662.25019157 358.13263915 666.07370376 361.6407865 669.8835659 365.16774082 C673.71511694 368.71444299 677.55986044 372.24326031 681.4460659 375.73024082 C682.24141747 376.44824863 683.03676903 377.16625645 683.85622215 377.90602207 C685.66296586 379.52287618 687.48509951 381.12259885 689.31715965 382.71070957 C706.05416095 397.36696687 716.92147368 415.59477152 722.3835659 437.16774082 C722.62848778 438.11133457 722.87340965 439.05492832 723.1257534 440.02711582 C728.6722144 466.31582135 722.65208409 494.66424928 708.3835659 517.16774082 C701.55751843 526.86308656 693.85518442 535.22538972 684.8835659 542.95289707 C681.48925201 545.96004704 678.19016805 549.06476513 674.8835659 552.16774082 C670.52078367 556.25970409 666.13861285 560.29936713 661.6023159 564.19899082 C658.30400122 567.12566441 655.09976758 570.1513808 651.8835659 573.16774082 C647.52064832 577.25956449 643.13861947 581.29936144 638.6023159 585.19899082 C635.30400028 588.12566525 632.09979248 591.15140596 628.8835659 594.16774082 C624.47000273 598.3064628 620.03848006 602.39792299 615.4538784 606.34742832 C610.90546179 610.34660218 606.49762199 614.5054079 602.05495262 618.6213541 C595.89045225 624.3248226 589.69848715 629.9982308 583.4460659 635.60524082 C578.99069786 639.60291455 574.59273071 643.65974967 570.20021629 647.72609043 C566.15906706 651.46300964 562.07645994 655.15073188 557.9773159 658.82399082 C554.92464939 661.58242442 551.90272296 664.37274392 548.8835659 667.16774082 C544.28315051 671.42659406 539.6462294 675.64015925 534.9773159 679.82399082 C531.92464939 682.58242442 528.90272296 685.37274392 525.8835659 688.16774082 C521.28315051 692.42659406 516.6462294 696.64015925 511.9773159 700.82399082 C508.92464939 703.58242442 505.90272296 706.37274392 502.8835659 709.16774082 C498.28315051 713.42659406 493.6462294 717.64015925 488.9773159 721.82399082 C485.92464939 724.58242442 482.90272296 727.37274392 479.8835659 730.16774082 C475.28315051 734.42659406 470.6462294 738.64015925 465.9773159 742.82399082 C462.92464939 745.58242442 459.90272296 748.37274392 456.8835659 751.16774082 C452.28315051 755.42659406 447.6462294 759.64015925 442.9773159 763.82399082 C439.92464909 766.58242469 436.90273934 769.37276126 433.8835659 772.16774082 C429.25736784 776.45001361 424.59677915 780.68981941 419.90309715 784.89820957 C415.03146345 789.28645636 410.21144266 793.73147891 405.3835659 798.16774082 C394.10695745 808.5296434 394.10695745 808.5296434 388.4460659 813.60524082 C383.99069786 817.60291455 379.59273071 821.65974967 375.20021629 825.72609043 C371.15906706 829.46300964 367.07645994 833.15073188 362.9773159 836.82399082 C359.92464939 839.58242442 356.90272296 842.37274392 353.8835659 845.16774082 C349.28315051 849.42659406 344.6462294 853.64015925 339.9773159 857.82399082 C336.92464939 860.58242442 333.90272296 863.37274392 330.8835659 866.16774082 C326.28315051 870.42659406 321.6462294 874.64015925 316.9773159 878.82399082 C313.92464939 881.58242442 310.90272296 884.37274392 307.8835659 887.16774082 C303.28584693 891.42409783 298.65209582 895.63567005 293.9851284 899.81617832 C290.35999975 903.09294626 286.7763378 906.41403841 283.19997215 909.7439127 C282.18850215 910.68240322 281.16945651 911.6128089 280.14225423 912.53405344 C278.35700844 914.15296275 278.35700844 914.15296275 276.71332991 915.96089303 C272.08016006 920.63403991 268.72740813 921.97877122 262.18128145 922.08529627 C261.13866612 922.06695274 260.09605078 922.04860921 259.02184105 922.02970982 C257.89626215 922.03780749 256.77068324 922.04590516 255.61099589 922.05424821 C251.84873743 922.07276646 248.08858573 922.04135598 244.326437 922.01002598 C241.62561316 922.01296348 238.92492377 922.01865536 236.22412682 922.02772617 C229.65631778 922.04341272 223.08913559 922.021893 216.52141713 921.98773761 C208.87070032 921.94936683 201.22011181 921.94815117 193.56931527 921.94846718 C179.91839817 921.94778084 166.26776958 921.91368074 152.61696434 921.86061192 C139.37441115 921.80916181 126.13207982 921.78084474 112.88942528 921.77858067 C112.0734957 921.77843781 111.25756612 921.77829496 110.41691141 921.77814777 C109.60238381 921.77800916 108.78785621 921.77787054 107.94864595 921.77772772 C106.30859717 921.77743733 104.66854838 921.77713484 103.0284996 921.77682018 C102.21966051 921.77666514 101.41082142 921.7765101 100.57747205 921.77635036 C87.95084511 921.77291005 75.32425154 921.74736793 62.69765746 921.71996409 C58.12348128 921.71035931 53.54931548 921.70422874 48.97513078 921.70066352 C41.72059899 921.69499576 34.46623058 921.67989551 27.211776 921.64483733 C23.8975892 921.62901173 20.58360118 921.61942606 17.26937103 921.61956501 C13.67647103 921.6187992 10.08413243 921.59962169 6.49132347 921.57560825 C5.4442467 921.57957194 4.39716992 921.58353563 3.31836355 921.58761942 C-3.17342111 921.51839205 -7.76475575 920.82146026 -12.69846535 916.23024082 C-13.26952003 915.54961582 -13.84057472 914.86899082 -14.4289341 914.16774082 C-15.01287941 913.48711582 -15.59682472 912.80649082 -16.19846535 912.10524082 C-19.94537698 906.9854938 -19.11433055 900.20107427 -18.6164341 894.16774082 C-16.21113314 885.45665087 -6.46984264 878.81015332 0.1023159 873.16383457 C2.9945563 870.63312422 5.81431463 868.02921431 8.6335659 865.41774082 C9.46706566 864.64599522 9.46706566 864.64599522 10.31740379 863.85865879 C11.44909312 862.81058701 12.58068464 861.76240961 13.71217918 860.71412754 C19.87667955 855.01065904 26.06864465 849.33725085 32.3210659 843.73024082 C36.77643394 839.73256709 41.17440109 835.67573197 45.56691551 831.60939121 C49.60806474 827.87247201 53.69067187 824.18474976 57.7898159 820.51149082 C60.84248242 817.75305722 63.86440885 814.96273772 66.8835659 812.16774082 C71.4839813 807.90888759 76.1209024 803.6953224 80.7898159 799.51149082 C83.84248242 796.75305722 86.86440885 793.96273772 89.8835659 791.16774082 C94.4839813 786.90888759 99.1209024 782.6953224 103.7898159 778.51149082 C106.84248242 775.75305722 109.86440885 772.96273772 112.8835659 770.16774082 C117.4839813 765.90888759 122.1209024 761.6953224 126.7898159 757.51149082 C129.84248271 754.75305696 132.86439246 751.96272038 135.8835659 749.16774082 C140.50976397 744.88546804 145.17035265 740.64566223 149.86403465 736.43727207 C154.73566835 732.04902528 159.55568915 727.60400273 164.3835659 723.16774082 C175.66017436 712.80583825 175.66017436 712.80583825 181.3210659 707.73024082 C185.77643394 703.73256709 190.17440109 699.67573197 194.56691551 695.60939121 C198.60806474 691.87247201 202.69067187 688.18474976 206.7898159 684.51149082 C209.84248242 681.75305722 212.86440885 678.96273772 215.8835659 676.16774082 C220.4839813 671.90888759 225.1209024 667.6953224 229.7898159 663.51149082 C232.84248242 660.75305722 235.86440885 657.96273772 238.8835659 655.16774082 C243.4839813 650.90888759 248.1209024 646.6953224 252.7898159 642.51149082 C255.84248242 639.75305722 258.86440885 636.96273772 261.8835659 634.16774082 C266.4839813 629.90888759 271.1209024 625.6953224 275.7898159 621.51149082 C278.84248242 618.75305722 281.86440885 615.96273772 284.8835659 613.16774082 C289.4839813 608.90888759 294.1209024 604.6953224 298.7898159 600.51149082 C301.84248242 597.75305722 304.86440885 594.96273772 307.8835659 592.16774082 C312.4839813 587.90888759 317.1209024 583.6953224 321.7898159 579.51149082 C324.84248271 576.75305696 327.86439246 573.96272038 330.8835659 571.16774082 C335.50976397 566.88546804 340.17035265 562.64566223 344.86403465 558.43727207 C349.73566835 554.04902528 354.55568915 549.60400273 359.3835659 545.16774082 C370.66017436 534.80583825 370.66017436 534.80583825 376.3210659 529.73024082 C380.77643394 525.73256709 385.17440109 521.67573197 389.56691551 517.60939121 C393.60806474 513.87247201 397.69067187 510.18474976 401.7898159 506.51149082 C404.84248242 503.75305722 407.86440885 500.96273772 410.8835659 498.16774082 C414.69340732 494.64076466 418.51694076 491.13263868 422.3835659 487.66774082 C423.56305809 486.60233067 423.56305809 486.60233067 424.7663784 485.51539707 C426.74911445 483.73685324 428.7448079 481.97829876 430.7507534 480.22633457 C440.35949758 472.33937385 440.35949758 472.33937385 444.5163784 461.11305332 C443.93785516 452.09489688 436.96141249 446.24141928 430.6101284 440.58961582 C429.32055135 439.46871763 428.02870917 438.35042237 426.7351284 437.23414707 C423.82351229 434.67560068 420.97726246 432.05130379 418.1335659 429.41774082 C417.57806053 428.90340488 417.02255516 428.38906895 416.45021629 427.85914707 C415.31837022 426.81090604 414.18661589 425.76256593 413.05495262 424.71412754 C406.89045225 419.01065904 400.69848715 413.33725085 394.4460659 407.73024082 C389.9914668 403.73325704 385.59438112 399.67699673 381.20241356 395.61158848 C377.13475002 391.85046656 373.0279496 388.13564543 368.90309715 384.43727207 C363.51318924 379.58217673 358.18404785 374.6599454 352.84255028 369.7517252 C347.73046216 365.05535962 342.61471434 360.36448943 337.4460659 355.73024082 C332.99069786 351.73256709 328.59273071 347.67573197 324.20021629 343.60939121 C320.9499124 340.60378009 317.68059516 337.62222158 314.3835659 334.66774082 C309.94736095 330.69244028 305.57102193 326.65566415 301.19997215 322.60914707 C297.94973494 319.6036336 294.6805094 316.62214473 291.3835659 313.66774082 C286.94736095 309.69244028 282.57102193 305.65566415 278.19997215 301.60914707 C274.94973494 298.6036336 271.6805094 295.62214473 268.3835659 292.66774082 C263.94736095 288.69244028 259.57102193 284.65566415 255.19997215 280.60914707 C251.94973494 277.6036336 248.6805094 274.62214473 245.3835659 271.66774082 C240.94736095 267.69244028 236.57102193 263.65566415 232.19997215 259.60914707 C228.94973494 256.6036336 225.6805094 253.62214473 222.3835659 250.66774082 C218.51694023 247.20284249 214.69342804 243.69469514 210.8835659 240.16774082 C206.25736784 235.88546804 201.59677915 231.64566223 196.90309715 227.43727207 C191.51318924 222.58217673 186.18404785 217.6599454 180.84255028 212.7517252 C175.73046216 208.05535962 170.61471434 203.36448943 165.4460659 198.73024082 C160.99069786 194.73256709 156.59273071 190.67573197 152.20021629 186.60939121 C148.9499124 183.60378009 145.68059516 180.62222158 142.3835659 177.66774082 C137.94736095 173.69244028 133.57102193 169.65566415 129.19997215 165.60914707 C125.94973494 162.6036336 122.6805094 159.62214473 119.3835659 156.66774082 C114.94736095 152.69244028 110.57102193 148.65566415 106.19997215 144.60914707 C102.94973494 141.6036336 99.6805094 138.62214473 96.3835659 135.66774082 C91.94736095 131.69244028 87.57102193 127.65566415 83.19997215 123.60914707 C79.94973494 120.6036336 76.6805094 117.62214473 73.3835659 114.66774082 C68.94736095 110.69244028 64.57102193 106.65566415 60.19997215 102.60914707 C56.94973494 99.6036336 53.6805094 96.62214473 50.3835659 93.66774082 C45.94736095 89.69244028 41.57102193 85.65566415 37.19997215 81.60914707 C33.94973494 78.6036336 30.6805094 75.62214473 27.3835659 72.66774082 C23.51694023 69.20284249 19.69342804 65.69469514 15.8835659 62.16774082 C12.05201487 58.62103865 8.20727137 55.09222133 4.3210659 51.60524082 C2.67519872 50.12611182 1.02936746 48.64694284 -0.6164341 47.16774082 C-1.11594582 46.72011387 -1.61545753 46.27248692 -2.13010597 45.81129551 C-3.73351182 44.37176284 -5.33159689 42.92650176 -6.9289341 41.48024082 C-7.89444191 40.61012363 -8.85994972 39.74000645 -9.85471535 38.84352207 C-18.37923923 30.58425919 -18.37923923 30.58425919 -18.8195591 24.24195957 C-18.98092008 12.58362867 -18.98092008 12.58362867 -15.6164341 8.16774082 C-10.70463014 3.26616979 -7.15215909 0.07189556 0 0 Z " fill="#FF3D00" transform="translate(278.61643409729004,117.83225917816162)"/>
<path d="M0 0 C3.08278908 1.81836387 5.5664299 4.20840979 8.125 6.6796875 C9.29376346 7.78439121 10.4630386 8.88855381 11.6328125 9.9921875 C12.20676758 10.53746094 12.78072266 11.08273437 13.37207031 11.64453125 C15.54690007 13.6954205 17.76906224 15.69012989 20 17.6796875 C24.43620495 21.65498804 28.81254398 25.69176418 33.18359375 29.73828125 C36.43383097 32.74379472 39.7030565 35.72528359 43 38.6796875 C47.43620495 42.65498804 51.81254398 46.69176418 56.18359375 50.73828125 C59.43383097 53.74379472 62.7030565 56.72528359 66 59.6796875 C70.43620495 63.65498804 74.81254398 67.69176418 79.18359375 71.73828125 C82.43383097 74.74379472 85.7030565 77.72528359 89 80.6796875 C93.43620495 84.65498804 97.81254398 88.69176418 102.18359375 92.73828125 C105.43383097 95.74379472 108.7030565 98.72528359 112 101.6796875 C115.86662567 105.14458583 119.69013786 108.65273318 123.5 112.1796875 C128.12080381 116.45696705 132.77505684 120.69278721 137.46484375 124.89453125 C140.3691328 127.51241892 143.24769901 130.15722875 146.125 132.8046875 C150.688526 137.00158619 155.30326941 141.13221085 160 145.1796875 C158.4216692 149.18122029 155.80175215 151.41145954 152.625 154.2421875 C151.53629704 155.2198725 150.44776004 156.19774235 149.359375 157.17578125 C148.80185547 157.67319824 148.24433594 158.17061523 147.66992188 158.68310547 C145.04878036 161.03216943 142.46376207 163.42007984 139.875 165.8046875 C135.4603847 169.85676017 131.0136865 173.8718731 126.5546875 177.875 C121.67405968 182.27801286 116.84007959 186.73221259 112 191.1796875 C100.72339154 201.54159007 100.72339154 201.54159007 95.0625 206.6171875 C90.60713196 210.61486123 86.20916481 214.67169635 81.81665039 218.73803711 C77.77550116 222.47495632 73.69289404 226.16267856 69.59375 229.8359375 C65.97761549 233.10352893 62.40239447 236.41464802 58.82958984 239.72949219 C55.46788474 242.84347176 52.06277779 245.89942744 48.625 248.9296875 C39.62268379 256.67557268 39.62268379 256.67557268 35.6875 267.3671875 C36.21454561 273.79714388 38.57455895 278.19389107 43.4375 282.4296875 C44.13230469 282.996875 44.82710938 283.5640625 45.54296875 284.1484375 C48.55072903 286.63498018 51.39468468 289.27104361 54.25 291.9296875 C55.37606353 292.9729138 56.5023675 294.01588064 57.62890625 295.05859375 C58.47026123 295.83807373 58.47026123 295.83807373 59.32861328 296.63330078 C65.49311365 302.33676928 71.68507875 308.01017747 77.9375 313.6171875 C82.39286804 317.61486123 86.79083519 321.67169635 91.18334961 325.73803711 C94.43365351 328.74364823 97.70297075 331.72520674 101 334.6796875 C105.43620495 338.65498804 109.81254398 342.69176418 114.18359375 346.73828125 C117.43383097 349.74379472 120.7030565 352.72528359 124 355.6796875 C127.86662776 359.1445877 131.6900549 362.6528206 135.5 366.1796875 C143.55869389 373.63612606 151.71136053 380.97922136 160 388.1796875 C158.40223905 392.383796 155.27025609 394.9478493 152 397.8671875 C151.41476562 398.39828125 150.82953125 398.929375 150.2265625 399.4765625 C148.4897262 401.05033338 146.74594734 402.6160376 145 404.1796875 C144.13375 404.95957031 143.2675 405.73945312 142.375 406.54296875 C140.78267183 407.97554031 139.18890431 409.4065135 137.59375 410.8359375 C134.54108348 413.5943711 131.51915705 416.3846906 128.5 419.1796875 C123.8995846 423.43854073 119.2626635 427.65210592 114.59375 431.8359375 C111.54108348 434.5943711 108.51915705 437.3846906 105.5 440.1796875 C100.8995846 444.43854073 96.2626635 448.65210592 91.59375 452.8359375 C88.54108319 455.59437137 85.51917344 458.38470794 82.5 461.1796875 C77.87380193 465.46196029 73.21321325 469.70176609 68.51953125 473.91015625 C63.64789755 478.29840304 58.82787676 482.74342559 54 487.1796875 C42.72339154 497.54159007 42.72339154 497.54159007 37.0625 502.6171875 C33.17629197 506.10417031 29.33165556 509.63309553 25.5 513.1796875 C20.79472639 517.53326766 16.0752807 521.86842157 11.28515625 526.12890625 C9.75178965 527.50500448 8.23871578 528.90402899 6.74609375 530.32421875 C6.04613281 530.97777344 5.34617187 531.63132812 4.625 532.3046875 C4.01914062 532.88476562 3.41328125 533.46484375 2.7890625 534.0625 C1 535.1796875 1 535.1796875 -1.0234375 535.0546875 C-3.32683694 534.03500079 -4.54322134 532.90231682 -6.25 531.0546875 C-8.62449718 528.57499108 -11.02006744 526.22891229 -13.625 523.9921875 C-17.23575846 520.87633995 -20.75128531 517.66986634 -24.25 514.4296875 C-24.80550537 513.91535156 -25.36101074 513.40101563 -25.93334961 512.87109375 C-27.06519569 511.82285272 -28.19695001 510.77451261 -29.32861328 509.72607422 C-35.49311365 504.02260572 -41.68507875 498.34919753 -47.9375 492.7421875 C-52.39286804 488.74451377 -56.79083519 484.68767865 -61.18334961 480.62133789 C-64.43365351 477.61572677 -67.70297075 474.63416826 -71 471.6796875 C-75.43620495 467.70438696 -79.81254398 463.66761082 -84.18359375 459.62109375 C-87.43383097 456.61558028 -90.7030565 453.63409141 -94 450.6796875 C-97.86662567 447.21478917 -101.69013786 443.70664182 -105.5 440.1796875 C-110.12619807 435.89741471 -114.78678675 431.65760891 -119.48046875 427.44921875 C-124.87037666 422.59412341 -130.19951805 417.67189208 -135.54101562 412.76367188 C-140.65310374 408.0673063 -145.76885156 403.3764361 -150.9375 398.7421875 C-155.39286804 394.74451377 -159.79083519 390.68767865 -164.18334961 386.62133789 C-167.43365351 383.61572677 -170.70297075 380.63416826 -174 377.6796875 C-178.43620495 373.70438696 -182.81254398 369.66761082 -187.18359375 365.62109375 C-190.43383097 362.61558028 -193.7030565 359.63409141 -197 356.6796875 C-198.66734053 355.18043658 -200.33395635 353.68037945 -202 352.1796875 C-202.76594482 351.49156982 -202.76594482 351.49156982 -203.54736328 350.78955078 C-224.49786195 331.91730176 -240.90584875 310.25303324 -244 281.1796875 C-245.58982406 249.54633602 -239.59939931 222.46462491 -218 198.1796875 C-212.65714334 192.53957088 -207.11727679 187.15599153 -201.2109375 182.10546875 C-198.33782016 179.60291248 -195.54480864 177.01906157 -192.75 174.4296875 C-192.19417236 173.9150293 -191.63834473 173.40037109 -191.06567383 172.87011719 C-189.93414125 171.82221466 -188.80271253 170.77419997 -187.67138672 169.72607422 C-181.50688635 164.02260572 -175.31492125 158.34919753 -169.0625 152.7421875 C-165.17629402 149.25520653 -161.33157193 145.72636765 -157.5 142.1796875 C-152.87377683 137.89744142 -148.21321377 133.65760938 -143.51953125 129.44921875 C-138.64789755 125.06097196 -133.82787676 120.61594941 -129 116.1796875 C-117.72339154 105.81778493 -117.72339154 105.81778493 -112.0625 100.7421875 C-107.60713196 96.74451377 -103.20916481 92.68767865 -98.81665039 88.62133789 C-94.77550116 84.88441868 -90.69289404 81.19669644 -86.59375 77.5234375 C-83.54108348 74.7650039 -80.51915705 71.9746844 -77.5 69.1796875 C-72.8995846 64.92083427 -68.2626635 60.70726908 -63.59375 56.5234375 C-60.54108348 53.7650039 -57.51915705 50.9746844 -54.5 48.1796875 C-49.8995846 43.92083427 -45.2626635 39.70726908 -40.59375 35.5234375 C-37.54108348 32.7650039 -34.51915705 29.9746844 -31.5 27.1796875 C-26.91018907 22.93065139 -22.29303448 18.71710502 -17.6171875 14.5625 C-15.58503039 12.71232711 -13.60280525 10.83656195 -11.6328125 8.921875 C-11.05144531 8.36435547 -10.47007812 7.80683594 -9.87109375 7.23242188 C-8.72578315 6.13195006 -7.58994246 5.0215184 -6.46484375 3.90039062 C-2.62487588 0.23582869 -2.62487588 0.23582869 0 0 Z " fill="#FF3D00" transform="translate(362,310.8203125)"/>
<path d="M0 0 C28.82427789 -0.09341857 57.64853311 -0.16396715 86.47293186 -0.20724869 C89.13665845 -0.21135469 91.80038494 -0.21549338 94.46411133 -0.21972656 C95.12619163 -0.2207758 95.78827194 -0.22182505 96.47041529 -0.22290608 C106.52141479 -0.23922482 116.57233856 -0.26730817 126.62329102 -0.30175781 C138.28754947 -0.34161187 149.95173984 -0.36742961 161.61606449 -0.37635398 C167.79292698 -0.38157109 173.96959465 -0.39384275 180.14639473 -0.42292023 C185.96004433 -0.45006647 191.77341881 -0.45844646 197.58712578 -0.45243073 C199.72083913 -0.4535313 201.85456167 -0.46148969 203.98822021 -0.4768219 C206.90256448 -0.49673706 209.81587137 -0.49193326 212.73023987 -0.48101807 C213.99534082 -0.49849512 213.99534082 -0.49849512 215.28599936 -0.51632524 C221.6742212 -0.45169905 225.85848744 1.18917297 230.70703125 5.52734375 C234.43925389 10.28823553 236.28716264 14.24293833 236.375 20.3125 C236.40335938 21.19550781 236.43171875 22.07851562 236.4609375 22.98828125 C235.1707234 31.41840895 230.01255191 36.44297438 223.875 41.9375 C223.1116333 42.63770264 222.3482666 43.33790527 221.56176758 44.05932617 C219.38487237 46.05136668 217.19494111 48.02788749 215 50 C214.03707031 50.87398437 213.07414063 51.74796875 212.08203125 52.6484375 C210.51892473 54.06109821 208.95139855 55.46888826 207.37890625 56.87109375 C204.60781506 59.3509701 201.86425606 61.8601079 199.125 64.375 C198.62331299 64.83543701 198.12162598 65.29587402 197.60473633 65.77026367 C196.06948528 67.17980729 194.53466576 68.58981917 193 70 C181.72339154 80.36190257 181.72339154 80.36190257 176.0625 85.4375 C171.60713196 89.43517373 167.20916481 93.49200885 162.81665039 97.55834961 C158.78836468 101.2833737 154.71904012 104.95967197 150.6328125 108.62109375 C145.37952137 113.36776184 140.19399001 118.18863935 135 123 C131.88840849 121.6094672 129.69566991 119.97662583 127.2421875 117.62109375 C126.53924561 116.95166748 125.83630371 116.28224121 125.11206055 115.5925293 C124.37383057 114.88136963 123.63560059 114.17020996 122.875 113.4375 C121.33799343 111.97316667 119.80023767 110.50961929 118.26171875 109.046875 C117.52356934 108.34369141 116.78541992 107.64050781 116.02490234 106.91601562 C112.86673299 103.92767307 109.63211545 101.02947472 106.38671875 98.13671875 C103.56948276 95.61457786 100.78356784 93.05912898 98 90.5 C94.37265837 87.16661198 90.73106803 83.85053585 87.0625 80.5625 C82.60713196 76.56482627 78.20916481 72.50799115 73.81665039 68.44165039 C70.56634649 65.43603927 67.29702925 62.45448076 64 59.5 C59.56379505 55.52469946 55.18745602 51.48792332 50.81640625 47.44140625 C47.56616903 44.43589278 44.2969435 41.45440391 41 38.5 C36.56379505 34.52469946 32.18745602 30.48792332 27.81640625 26.44140625 C24.56616903 23.43589278 21.2969435 20.45440391 18 17.5 C13.93888603 13.85437954 9.89828264 10.18728181 5.875 6.5 C5.29363281 5.97083984 4.71226562 5.44167969 4.11328125 4.89648438 C2.72289294 3.61833223 1.35866971 2.31181903 0 1 C0 0.67 0 0.34 0 0 Z " fill="#FF3D00" transform="translate(625,118)"/>
<path d="M0 0 C3.006818 1.33999498 4.99762609 2.79845291 7.25 5.1875 C9.62823921 7.63598256 12.03799459 9.96071053 14.625 12.1875 C18.23575846 15.30334755 21.75128531 18.50982116 25.25 21.75 C26.08325806 22.52150391 26.08325806 22.52150391 26.93334961 23.30859375 C28.06519569 24.35683478 29.19695001 25.40517489 30.32861328 26.45361328 C36.49311365 32.15708178 42.68507875 37.83048997 48.9375 43.4375 C53.39286804 47.43517373 57.79083519 51.49200885 62.18334961 55.55834961 C65.43365351 58.56396073 68.70297075 61.54551924 72 64.5 C76.43023368 68.46994966 80.80861374 72.49328571 85.16162109 76.54760742 C87.71888783 78.9236236 90.29181572 81.24963016 92.9453125 83.51953125 C98.5831293 88.34372726 102.40872313 91.89351796 103.30078125 99.59765625 C103.60465951 105.90964175 102.84182503 110.88501202 99 116 C94.72333636 120.45161806 91.53330102 122.91874323 85.16380024 123.12304783 C83.51295793 123.12726567 81.86209605 123.1258783 80.21125793 123.12025452 C78.84759009 123.12153615 78.84759009 123.12153615 77.45637339 123.12284368 C74.397735 123.12449612 71.33915096 123.11898093 68.28051758 123.11352539 C66.09291078 123.11324344 63.90530389 123.1134014 61.71769714 123.1139679 C55.76764308 123.11425557 49.81760906 123.10836364 43.86755967 123.10139394 C37.65354402 123.09515545 31.43952794 123.09455621 25.22550964 123.09336853 C14.79201923 123.09061055 4.3585357 123.08435838 -6.07495117 123.07543945 C-16.82202111 123.06626201 -27.56908905 123.0591828 -38.31616211 123.05493164 C-38.97848696 123.05466892 -39.6408118 123.05440619 -40.3232071 123.05413551 C-43.64585901 123.05283048 -46.96851092 123.05156902 -50.29116285 123.05032361 C-77.86078037 123.03986253 -105.43038967 123.0222659 -133 123 C-132.06135676 121.88960069 -131.12048888 120.78108172 -130.17871094 119.67333984 C-129.65500916 119.05582855 -129.13130737 118.43831726 -128.59173584 117.80209351 C-126.30939808 115.2181308 -123.81111267 112.9300014 -121.25 110.625 C-120.72978271 110.15441162 -120.20956543 109.68382324 -119.67358398 109.19897461 C-118.11961104 107.79491937 -116.56056361 106.39672224 -115 105 C-113.3540712 103.52093956 -111.70823196 102.04177946 -110.0625 100.5625 C-109.25941406 99.84191406 -108.45632813 99.12132812 -107.62890625 98.37890625 C-104.56595407 95.60723036 -101.53143963 92.80604069 -98.5 90 C-93.87377683 85.71775392 -89.21321377 81.47792188 -84.51953125 77.26953125 C-79.64789755 72.88128446 -74.82787676 68.43626191 -70 64 C-58.72339154 53.63809743 -58.72339154 53.63809743 -53.0625 48.5625 C-48.60713196 44.56482627 -44.20916481 40.50799115 -39.81665039 36.44165039 C-35.77550116 32.70473118 -31.69289404 29.01700894 -27.59375 25.34375 C-23.98180956 22.07994839 -20.4124354 18.77090899 -16.84057617 15.46337891 C-12.57172197 11.51518087 -8.26165377 7.61679698 -3.92578125 3.7421875 C-2.58511243 2.52933092 -1.27836105 1.27836105 0 0 Z " fill="#FF3D00" transform="translate(758,916)"/>
</svg>
